PathFileType	4	(X/Y/Z)	Trial60_Left_Ankle_markers_cropped.trc
DataRate	CameraRate	NumFrames	NumMarkers	Units	OrigDataRate	OrigDataStartFrame	OrigNumFrames																																																																																													
200	200	8	27	m	200	75	101
Frame#	Time	R_ASIS			L_ASIS			Sacral			L_Thigh_Superior			L_Thigh_Inferior			L_Thigh_Lateral			L_Shank_Superior			L_Shank_Inferior			L_Shank_Lateral			L_Heel			L_Midfoot_Superior			L_Midfoot_Lateral			L_Toe			R_Thigh_Superior			R_Thigh_Inferior			R_Thigh_Lateral			R_Shank_Superior			R_Shank_Lateral			R_Shank_Inferior			R_Heel			R_Midfoot_Superior			R_Midfoot_Lateral			R_Toe
		X1	Y1	Z1	X2	Y2	Z2	X3	Y3	Z3	X4	Y4	Z4	X5	Y5	Z5	X6	Y6	Z6	X7	Y7	Z7	X8	Y8	Z8	X9	Y9	Z9	X10	Y10	Z10	X11	Y11	Z11	X12	Y12	Z12	X13	Y13	Z13	X14	Y14	Z14	X15	Y15	Z15	X16	Y16	Z16	X17	Y17	Z17	X18	Y18	Z18	X19	Y19	Z19	X20	Y20	Z20	X21	Y21	Z21	X22	Y22	Z22	X23	Y23	Z23

76	   0.375	   -0.58404175141962	    0.93544175452922	   -0.39133847257277	   -0.54759851611537	    0.94789919204585	   -0.66676160332392	   -0.78833820458344	    0.97376393146362	   -0.56067432882966	   -0.44663630699218	    0.79704572262628	   -0.63260993155284	   -0.34700176529200	    0.63575841162604	   -0.64306589185698	   -0.44944564681098	    0.68208100206383	   -0.72578851510783	   -0.30333137064932	    0.50333949377000	   -0.66547202686662	   -0.24027390545506	    0.28504351062122	   -0.68000473372073	   -0.33476529864915	    0.37124547797166	   -0.73801031444408	   -0.32472791596066	    0.13511004533889	   -0.67192231684609	   -0.14766843237701	    0.15297856601774	   -0.68307955300308	   -0.23361509150112	    0.10609294951622	   -0.72596093707420	   -0.03519215166282	    0.06917544219798	   -0.66326761616791	   -0.53349232912597	    0.73257197049191	   -0.43316457180647	   -0.53779146226719	    0.56725326261585	   -0.47198423141910	   -0.62600551827499	    0.61218474871043	   -0.40133794628940	   -0.57500452791226	    0.38739434382634	   -0.48489579848740	   -0.61869309166771	    0.19354415121317	   -0.51232056019487	   -0.66142821625773	    0.28318380982399	   -0.44337104310601	   -0.75924076610994	    0.03663842839221	   -0.56840551040248	   -0.58995479251024	    0.08863020969055	   -0.51754681924433	   -0.68255691737485	    0.02967339406410	   -0.48821976804768	   -0.47303256138376	    0.03218699612991	   -0.48155568601037
77	   0.380	   -0.58380516861269	    0.93551961711894	   -0.39166207173026	   -0.54736250337147	    0.94764102853271	   -0.66700276317568	   -0.78808894723309	    0.97364822459379	   -0.56098928024307	   -0.44617650811097	    0.79738126197503	   -0.63279638211854	   -0.34674788761523	    0.63611819492212	   -0.64368205526162	   -0.44958035438768	    0.68214895313513	   -0.72597935338368	   -0.30341198883574	    0.50297691997369	   -0.66592608683485	   -0.24082662929953	    0.28453130068973	   -0.68005856424524	   -0.33531802767923	    0.37075467782963	   -0.73796373364691	   -0.32541640819294	    0.13459406182621	   -0.67110882996178	   -0.14844156171628	    0.15236610394105	   -0.68341746110853	   -0.23465841144089	    0.10543928489271	   -0.72567026719087	   -0.03588975489061	    0.06857375021779	   -0.66421017638587	   -0.53324762574130	    0.73257399721089	   -0.43320485298552	   -0.53751555449540	    0.56720802111368	   -0.47188631174570	   -0.62583857960346	    0.61219680738956	   -0.40139424739275	   -0.57479869263968	    0.38735367101796	   -0.48485181566949	   -0.61862912844468	    0.19353001600947	   -0.51230175555995	   -0.66133335267508	    0.28321422872052	   -0.44337765940617	   -0.75923835249773	    0.03665746242910	   -0.56840839399672	   -0.58995269169641	    0.08862829093425	   -0.51754258002536	   -0.68255515234436	    0.02967641520120	   -0.48822062996802	   -0.47303298549043	    0.03217395110246	   -0.48154813245883
78	   0.385	   -0.58360579255037	    0.93560066552469	   -0.39197733527153	   -0.54715063394614	    0.94738481668616	   -0.66723707598339	   -0.78786597693540	    0.97354834696615	   -0.56130414156509	   -0.44562607570574	    0.79784568019135	   -0.63304779849343	   -0.34642871892230	    0.63659122229778	   -0.64442322066419	   -0.44971493256239	    0.68229230131257	   -0.72620707876932	   -0.30346932274092	    0.50272169347486	   -0.66651082719963	   -0.24128310820574	    0.28417004044327	   -0.68027509425807	   -0.33581549696619	    0.37036416992784	   -0.73804695889218	   -0.32583403017462	    0.13399938316407	   -0.67034869121564	   -0.14903672607466	    0.15208736764016	   -0.68407330033800	   -0.23547235766858	    0.10495992538824	   -0.72560118885488	   -0.03621335325907	    0.06856328336161	   -0.66576015870148	   -0.53303734127152	    0.73257599206302	   -0.43323119851060	   -0.53726832787939	    0.56716006018886	   -0.47176223707179	   -0.62570711005738	    0.61221051305944	   -0.40144040280500	   -0.57460590545525	    0.38731214203567	   -0.48480240044002	   -0.61857306324717	    0.19351669490927	   -0.51227596489942	   -0.66125725895410	    0.28324660762377	   -0.44338026115081	   -0.75923677281405	    0.03667794489374	   -0.56841196505523	   -0.58995053480899	    0.08862686209560	   -0.51753573166564	   -0.68255371369371	    0.02967928860266	   -0.48822111593435	   -0.47303377799563	    0.03216103408966	   -0.48153857840687
79	   0.390	   -0.58345364975587	    0.93568602736429	   -0.39227762435316	   -0.54695258936294	    0.94714263945410	   -0.66746880184118	   -0.78767174724436	    0.97346809211539	   -0.56162230228657	   -0.44497561869316	    0.79842919420814	   -0.63336614311359	   -0.34603655514493	    0.63715807569535	   -0.64526349340872	   -0.44981751181401	    0.68250514376674	   -0.72646407952584	   -0.30348812536272	    0.50258780479711	   -0.66721126941011	   -0.24162355766250	    0.28398047166576	   -0.68065983084772	   -0.33623860837311	    0.37009422862610	   -0.73825955904560	   -0.32593016327542	    0.13329669549884	   -0.66964195933369	   -0.14943072554875	    0.15220153688889	   -0.68508373909742	   -0.23601817115519	    0.10469047076656	   -0.72578501669594	   -0.03611198802567	    0.06925525993365	   -0.66802546628250	   -0.53286975925854	    0.73257929283732	   -0.43324751966753	   -0.53705901193124	    0.56711190569585	   -0.47162099085129	   -0.62561750886922	    0.61222720615333	   -0.40148209427625	   -0.57443320946614	    0.38727149367507	   -0.48475060084602	   -0.61852726311194	    0.19350547912510	   -0.51224554986915	   -0.66120223403621	    0.28328089089045	   -0.44338157526815	   -0.75923599662907	    0.03669901595660	   -0.56841613678959	   -0.58994861083253	    0.08862612959494	   -0.51752642011490	   -0.68255265511832	    0.02968172790703	   -0.48822140920450	   -0.47303506282076	    0.03214867973976	   -0.48152741202379
80	   0.395	   -0.58335505300414	    0.93577604908910	   -0.39255889654394	   -0.54675753205919	    0.94692811559447	   -0.66770241645186	   -0.78750689455962	    0.97341100175144	   -0.56194764391923	   -0.44423157170186	    0.79910955600594	   -0.63373923989902	   -0.34557608157135	    0.63779280955934	   -0.64616784864362	   -0.44985558793607	    0.68278012925361	   -0.72674098157060	   -0.30345306613738	    0.50258519118715	   -0.66800653993020	   -0.24182425101602	    0.28397847518875	   -0.68121372591510	   -0.33656401442661	    0.36996117205631	   -0.73859711513635	   -0.32565158058107	    0.13245804203406	   -0.66899267238908	   -0.14959804516583	    0.15276142234377	   -0.68647224704796	   -0.23625386307240	    0.10466436433648	   -0.72624846821215	   -0.03554126419587	    0.07074943241347	   -0.67108980529514	   -0.53275010411215	    0.73258520529314	   -0.43325968519346	   -0.53689353149976	    0.56706685845321	   -0.47147504477756	   -0.62557332938191	    0.61224807367321	   -0.40152679271675	   -0.57428648417701	    0.38723388356300	   -0.48470171193021	   -0.61849296500636	    0.19349770196727	   -0.51221396132258	   -0.66116869057298	    0.28331705671624	   -0.44338527120699	   -0.75923575760864	    0.03671971466812	   -0.56842069585418	   -0.58994711230495	    0.08862619683384	   -0.51751528782092	   -0.68255184393781	    0.02968346236391	   -0.48822182399506	   -0.47303698983460	    0.03213722846947	   -0.48151520943928
81	   0.400	   -0.58331218811510	    0.93587039839084	   -0.39282028162658	   -0.54655602355294	    0.94675428892949	   -0.66794086268178	   -0.78736986838111	    0.97337982767051	   -0.56228474462839	   -0.44342205746820	    0.79985235964071	   -0.63414007954871	   -0.34506343680253	    0.63846661137247	   -0.64709610985884	   -0.44979976030947	    0.68310940189282	   -0.72702803609562	   -0.30334923670236	    0.50271884978460	   -0.66887362740498	   -0.24185748833744	    0.28417259007064	   -0.68193520868372	   -0.33676428378744	    0.36997544983556	   -0.73905287560766	   -0.32494834267231	    0.13146753643752	   -0.66841147241957	   -0.14951183088542	    0.15380335261045	   -0.68824804470049	   -0.23614053426010	    0.10490927030283	   -0.72701210578539	   -0.03447236333226	    0.07311077626578	   -0.67499973573510	   -0.53268063273521	    0.73259489976990	   -0.43327490857425	   -0.53677396149546	    0.56702854059684	   -0.47133858823978	   -0.62557477736457	    0.61227376133019	   -0.40158259057663	   -0.57416944743226	    0.38720160044880	   -0.48466197705395	   -0.61847005630417	    0.19349436980938	   -0.51218517963982	   -0.66115532247326	    0.28335512076170	   -0.44339521678523	   -0.75923568402486	    0.03673910113274	   -0.56842531294704	   -0.58994616452062	    0.08862699941961	   -0.51750328814373	   -0.68255102900790	    0.02968438783456	   -0.48822266964208	   -0.47303970582647	    0.03212682801840	   -0.48150269249192
82	   0.405	   -0.58332347302754	    0.93596811731641	   -0.39306397851219	   -0.54634048388375	    0.94663165684330	   -0.66818452516590	   -0.78725686567361	    0.97337591071702	   -0.56263899844008	   -0.44259391549576	    0.80061533917648	   -0.63453065479452	   -0.34452196757774	    0.63915207634191	   -0.64800722828557	   -0.44962581285575	    0.68348574653390	   -0.72731601525225	   -0.30316261913639	    0.50298853449214	   -0.66979122676666	   -0.24169267794137	    0.28456281595750	   -0.68282159587333	   -0.33681031206974	    0.37014077151278	   -0.73961933557875	   -0.32378140547821	    0.13033215636799	   -0.66791759769695	   -0.14914631622549	    0.15533727775754	   -0.69040311333052	   -0.23564834238885	    0.10544308284176	   -0.72808663470484	   -0.03290039483037	    0.07634750454277	   -0.67974798775891	   -0.53266106419951	    0.73260917325636	   -0.43330023336549	   -0.53669861377120	    0.56700003393612	   -0.47122481637875	   -0.62561880973436	    0.61230407256759	   -0.40165644952946	   -0.57408293345978	    0.38717650525560	   -0.48463656593282	   -0.61845711554224	    0.19349591347440	   -0.51216275158473	   -0.66115927973104	    0.28339508759876	   -0.44341461710431	   -0.75923542615631	    0.03675639355861	   -0.56842962580667	   -0.58994578479499	    0.08862836730247	   -0.51749135916580	   -0.68254989645615	    0.02968458759396	   -0.48822419932479	   -0.47304325083649	    0.03211740620082	   -0.48149063478815
83	   0.410	   -0.58338451414707	    0.93606768683205	   -0.39329435641151	   -0.54610484414550	    0.94656671780265	   -0.66843085890816	   -0.78716223409256	    0.97339860326894	   -0.56301631749945	   -0.44179950149097	    0.80135659094231	   -0.63487017442739	   -0.34397591226088	    0.63982746441376	   -0.64886383624586	   -0.44931482760886	    0.68390382090222	   -0.72759687373444	   -0.30288056392333	    0.50338933597363	   -0.67074241091784	   -0.24129902141381	    0.28514103016154	   -0.68386922927148	   -0.33667502398830	    0.37045459879354	   -0.74028951087699	   -0.32213106057459	    0.12908855081370	   -0.66754101164715	   -0.14848059010930	    0.15733934052546	   -0.69290695208348	   -0.23476023662561	    0.10627042544491	   -0.72946886666358	   -0.03084912693120	    0.08039671774764	   -0.68525578095803	   -0.53268897602080	    0.73262818515994	   -0.43334059316156	   -0.53666247258339	    0.56698302851791	   -0.47114301181119	   -0.62569974525264	    0.61233791006815	   -0.40175243253367	   -0.57402474399068	    0.38715947870917	   -0.48462817571989	   -0.61845166837136	    0.19350213736648	   -0.51214893037381	   -0.66117634863050	    0.28343693261575	   -0.44344527750856	   -0.75923467635788	    0.03677104983333	   -0.56843334584692	   -0.58994578487000	    0.08863007615224	   -0.51748023434490	   -0.68254819712454	    0.02968428389058	   -0.48822657723034	   -0.47304744940646	    0.03210874020198	   -0.48147970142079
